<?xml version="1.0" encoding="UTF-8"?><svg id="Capa_1" xmlns="http://www.w3.org/2000/svg" viewBox="0 0 297.55 99.96"><defs><style>.cls-1{fill:#414644;}.cls-2{fill:#96b62a;}</style></defs><g id="Logo"><path class="cls-1" d="M15.89,7.5c-1.06,0-2.08.19-3.03.53,1.43.55,2.45,1.93,2.45,3.56,0,2.11-1.71,3.83-3.83,3.83-1.81,0-3.31-1.25-3.71-2.94-.64,1.25-1.01,2.66-1.01,4.15,0,5.04,4.09,9.13,9.13,9.13s9.13-4.09,9.13-9.13-4.09-9.13-9.13-9.13h0Z"/><path class="cls-1" d="M22.12,70.44h-11.75V28.13c2.76,1.86,7.83,2.52,11.75,0v42.31Z"/><path class="cls-1" d="M29.05,28.43h11.5v2.77s3.84-2.96,10.9-3.07c7.06-.11,18.49,5.58,18.49,20.4,0,7.42-.16,21.82-.16,21.82h-10.78v-23.68s.53-7.34-8.9-7.61c-9.43-.27-9.44,8.29-9.44,8.29v23h-11.61V28.43Z"/><path class="cls-1" d="M76.99,28.19v42.26s11.61,0,11.61,0v-22.28c0-5.22,4.49-8.66,11.33-8.6v-11.43c-5.05.21-8.7,2.04-11.47,4.87v-4.81s-11.47,0-11.47,0Z"/><path class="cls-1" d="M124.81,28.13c-11.83,0-21.42,9.47-21.42,21.16s9.59,21.16,21.42,21.16,21.42-9.47,21.42-21.16c0-11.68-9.59-21.16-21.42-21.16h0ZM124.84,61.14c-6.55,0-11.86-5.24-11.86-11.71s5.31-11.71,11.86-11.71,11.86,5.24,11.86,11.71-5.31,11.71-11.86,11.71h0Z"/><path class="cls-1" d="M191.02,51.43v-23.3h-11.06v24.13c-.3,4.23-3.88,7.5-8.27,7.5s-8.31-3.64-8.31-8.14c0-.06,0-.12,0-.19v-23.3h-11.07v24.05h.04c.38,10.14,8.87,18.26,19.32,18.26s18.94-8.12,19.32-18.26l.03-.75Z"/><path class="cls-1" d="M218.66,59.81c-2.26,0-4.86-1.34-4.93-4.01v-17.56h10.98v-10.02h-11.18v-12.73s-10.08,0-10.08,0v12.73s-5.9,0-5.9,0v10.02s5.78,0,5.78,0l-.05,20.78c0,4.96,4.56,11.54,13,11.42h9.76v-10.63h-7.4Z"/><path class="cls-1" d="M271.22,51.32c.07-.67.11-1.35.11-2.03,0-11.68-9.03-21.16-20.8-21.16s-21.32,9.47-21.32,21.16,9.54,21.16,21.32,21.16c5.81,0,11.06-2.32,14.9-6.06.08.03-6.43-6.25-6.43-6.25-2.14,2.59-5.26,3.67-8.67,3.67-5.86,0-10.08-4.24-10.94-10.48h31.83ZM250.53,37.42c4.8,0,8.41,2.14,9.35,6.69h-19.84c1.81-4.6,5.69-6.69,10.49-6.69h0Z"/><path class="cls-2" d="M253.05,7.26v5.15c17.97,0,32.58,14.62,32.58,32.58h0s5.15,0,5.15,0h0c0-20.81-16.93-37.73-37.73-37.73h0Z"/><path class="cls-2" d="M253.05,18.3v3.65c12.71,0,23.05,10.34,23.05,23.05h0s3.65,0,3.65,0h0c0-14.72-11.98-26.7-26.7-26.7h0Z"/><polygon class="cls-1" points="105.28 81.26 101.44 81.26 101.44 79.87 110.78 79.87 110.78 81.26 106.92 81.26 106.92 92.49 105.28 92.49 105.28 81.26"/><path class="cls-1" d="M111.72,88.26c.04,2.23,1.46,3.14,3.11,3.14,1.18,0,1.89-.21,2.51-.47l.28,1.18c-.58.26-1.57.56-3.01.56-2.79,0-4.45-1.83-4.45-4.57s1.61-4.88,4.25-4.88c2.96,0,3.74,2.6,3.74,4.27,0,.34-.04.6-.06.77h-6.36ZM116.55,87.08c.02-1.05-.43-2.68-2.28-2.68-1.67,0-2.4,1.53-2.53,2.68h4.81Z"/><rect class="cls-1" x="120.18" y="79.2" width="1.65" height="13.29"/><path class="cls-1" d="M125.51,88.26c.04,2.23,1.46,3.14,3.11,3.14,1.18,0,1.89-.21,2.51-.47l.28,1.18c-.58.26-1.57.56-3.01.56-2.79,0-4.45-1.83-4.45-4.57s1.61-4.88,4.25-4.88c2.96,0,3.74,2.6,3.74,4.27,0,.34-.04.6-.06.77h-6.36ZM130.34,87.08c.02-1.05-.43-2.68-2.28-2.68-1.67,0-2.4,1.53-2.53,2.68h4.81Z"/><path class="cls-1" d="M133.97,85.88c0-.94-.02-1.7-.08-2.45h1.44l.07,1.46h.06c.5-.86,1.35-1.67,2.84-1.67,1.24,0,2.17.75,2.56,1.82h.04c.28-.51.64-.9,1.01-1.18.54-.41,1.14-.64,2-.64,1.2,0,2.98.79,2.98,3.93v5.33h-1.61v-5.13c0-1.74-.64-2.79-1.97-2.79-.93,0-1.67.69-1.95,1.5-.07.22-.13.52-.13.82v5.6h-1.61v-5.43c0-1.44-.64-2.49-1.89-2.49-1.03,0-1.78.82-2.04,1.65-.09.24-.13.52-.13.8v5.47h-1.61v-6.61Z"/><path class="cls-1" d="M154.6,92.49l-.13-1.14h-.06c-.51.71-1.48,1.35-2.77,1.35-1.83,0-2.77-1.29-2.77-2.6,0-2.19,1.95-3.39,5.45-3.37v-.19c0-.75-.21-2.1-2.06-2.1-.84,0-1.72.26-2.36.67l-.37-1.09c.75-.49,1.83-.8,2.98-.8,2.77,0,3.44,1.89,3.44,3.71v3.39c0,.79.04,1.55.15,2.17h-1.5ZM154.36,87.86c-1.8-.04-3.84.28-3.84,2.04,0,1.07.71,1.57,1.55,1.57,1.18,0,1.93-.75,2.19-1.52.06-.17.09-.36.09-.52v-1.57Z"/><path class="cls-1" d="M160.52,80.83v2.6h2.36v1.25h-2.36v4.88c0,1.12.32,1.76,1.24,1.76.43,0,.75-.06.95-.11l.07,1.23c-.32.13-.82.23-1.46.23-.77,0-1.38-.24-1.78-.69-.47-.49-.64-1.29-.64-2.36v-4.94h-1.4v-1.25h1.4v-2.17l1.61-.43Z"/><path class="cls-1" d="M166.56,80.88c.02.56-.39,1.01-1.05,1.01-.58,0-.99-.45-.99-1.01s.43-1.03,1.03-1.03,1.01.45,1.01,1.03h0ZM164.73,83.43h1.65v9.06h-1.65v-9.06Z"/><path class="cls-1" d="M175.57,92.15c-.43.22-1.38.52-2.6.52-2.73,0-4.51-1.85-4.51-4.62s1.91-4.81,4.87-4.81c.97,0,1.83.24,2.28.47l-.37,1.27c-.39-.22-1.01-.43-1.91-.43-2.08,0-3.2,1.53-3.2,3.42,0,2.1,1.35,3.39,3.15,3.39.94,0,1.55-.24,2.02-.45l.28,1.23Z"/><path class="cls-1" d="M177.27,90.8c.49.32,1.35.66,2.17.66,1.2,0,1.76-.6,1.76-1.35,0-.79-.47-1.22-1.68-1.67-1.63-.58-2.4-1.48-2.4-2.56,0-1.46,1.18-2.66,3.13-2.66.92,0,1.72.26,2.23.56l-.41,1.2c-.36-.22-1.01-.52-1.85-.52-.97,0-1.52.56-1.52,1.24,0,.75.54,1.08,1.72,1.53,1.57.6,2.38,1.39,2.38,2.73,0,1.59-1.23,2.71-3.39,2.71-.99,0-1.91-.24-2.54-.62l.41-1.25Z"/><path class="cls-1" d="M188.71,90.5c.73.45,1.8.82,2.92.82,1.67,0,2.64-.88,2.64-2.15,0-1.18-.67-1.85-2.38-2.51-2.06-.73-3.33-1.8-3.33-3.58,0-1.96,1.63-3.43,4.08-3.43,1.29,0,2.23.3,2.79.62l-.45,1.33c-.41-.22-1.25-.6-2.4-.6-1.72,0-2.38,1.03-2.38,1.89,0,1.18.77,1.76,2.51,2.43,2.13.82,3.22,1.85,3.22,3.71,0,1.95-1.44,3.63-4.42,3.63-1.22,0-2.55-.36-3.22-.81l.41-1.37Z"/><path class="cls-1" d="M206.41,87.88c0,3.35-2.32,4.81-4.51,4.81-2.45,0-4.34-1.8-4.34-4.66,0-3.03,1.98-4.81,4.49-4.81s4.36,1.89,4.36,4.66h0ZM199.23,87.98c0,1.98,1.14,3.48,2.75,3.48s2.75-1.48,2.75-3.52c0-1.53-.77-3.48-2.71-3.48s-2.79,1.8-2.79,3.52h0Z"/><rect class="cls-1" x="208.49" y="79.2" width="1.65" height="13.29"/><path class="cls-1" d="M220.49,90.02c0,.94.02,1.76.07,2.47h-1.46l-.09-1.48h-.04c-.43.73-1.38,1.69-2.99,1.69-1.42,0-3.13-.79-3.13-3.97v-5.3h1.65v5.02c0,1.72.52,2.88,2.02,2.88,1.1,0,1.87-.77,2.17-1.5.09-.24.15-.54.15-.84v-5.56h1.65v6.59Z"/><path class="cls-1" d="M225.21,80.83v2.6h2.36v1.25h-2.36v4.88c0,1.12.32,1.76,1.23,1.76.43,0,.75-.06.95-.11l.07,1.23c-.32.13-.82.23-1.46.23-.77,0-1.38-.24-1.78-.69-.47-.49-.64-1.29-.64-2.36v-4.94h-1.4v-1.25h1.4v-2.17l1.61-.43Z"/><path class="cls-1" d="M231.25,80.88c.02.56-.39,1.01-1.05,1.01-.58,0-.99-.45-.99-1.01s.43-1.03,1.03-1.03,1.01.45,1.01,1.03h0ZM229.42,83.43h1.65v9.06h-1.65v-9.06Z"/><path class="cls-1" d="M242,87.88c0,3.35-2.32,4.81-4.51,4.81-2.45,0-4.34-1.8-4.34-4.66,0-3.03,1.98-4.81,4.49-4.81s4.36,1.89,4.36,4.66h0ZM234.81,87.98c0,1.98,1.14,3.48,2.75,3.48s2.75-1.48,2.75-3.52c0-1.53-.77-3.48-2.71-3.48s-2.79,1.8-2.79,3.52h0Z"/><path class="cls-1" d="M244.08,85.88c0-.94-.02-1.7-.07-2.45h1.46l.09,1.5h.04c.45-.86,1.5-1.7,2.99-1.7,1.25,0,3.2.75,3.2,3.86v5.41h-1.65v-5.22c0-1.46-.54-2.68-2.1-2.68-1.08,0-1.93.77-2.21,1.69-.08.21-.11.49-.11.77v5.45h-1.65v-6.61Z"/><path class="cls-1" d="M254.24,90.8c.49.32,1.35.66,2.17.66,1.2,0,1.76-.6,1.76-1.35,0-.79-.47-1.22-1.68-1.67-1.63-.58-2.4-1.48-2.4-2.56,0-1.46,1.18-2.66,3.13-2.66.92,0,1.72.26,2.23.56l-.41,1.2c-.36-.22-1.01-.52-1.85-.52-.97,0-1.52.56-1.52,1.24,0,.75.54,1.08,1.72,1.53,1.57.6,2.38,1.39,2.38,2.73,0,1.59-1.23,2.71-3.39,2.71-.99,0-1.91-.24-2.54-.62l.41-1.25Z"/></g></svg>